<mxfile host="app.diagrams.net" modified="2023-05-27T16:10:12.147Z" agent="Mozilla/5.0 (Windows NT 10.0; Win64; x64) AppleWebKit/537.36 (KHTML, like Gecko) Chrome/113.0.0.0 Safari/537.36" etag="_KkzcfMhYTtqCvnucVyJ" version="21.3.0" type="device">
  <diagram name="Page-1" id="O16oIW7MTGFbL38wEt7E">
    <mxGraphModel dx="1761" dy="605" grid="1" gridSize="10" guides="1" tooltips="1" connect="1" arrows="1" fold="1" page="1" pageScale="1" pageWidth="827" pageHeight="1169" math="0" shadow="0">
      <root>
        <mxCell id="0" />
        <mxCell id="1" parent="0" />
        <mxCell id="eCMuN70A0XHilftcNr7w-8" style="edgeStyle=orthogonalEdgeStyle;rounded=0;orthogonalLoop=1;jettySize=auto;html=1;exitX=1;exitY=0.5;exitDx=0;exitDy=0;entryX=0;entryY=0.5;entryDx=0;entryDy=0;" edge="1" parent="1" source="eCMuN70A0XHilftcNr7w-1" target="eCMuN70A0XHilftcNr7w-4">
          <mxGeometry relative="1" as="geometry" />
        </mxCell>
        <mxCell id="eCMuN70A0XHilftcNr7w-11" style="edgeStyle=orthogonalEdgeStyle;rounded=0;orthogonalLoop=1;jettySize=auto;html=1;exitX=0.5;exitY=1;exitDx=0;exitDy=0;entryX=0.5;entryY=0;entryDx=0;entryDy=0;" edge="1" parent="1" source="eCMuN70A0XHilftcNr7w-1" target="eCMuN70A0XHilftcNr7w-6">
          <mxGeometry relative="1" as="geometry" />
        </mxCell>
        <mxCell id="eCMuN70A0XHilftcNr7w-1" value="1" style="ellipse;whiteSpace=wrap;html=1;aspect=fixed;fillColor=#dae8fc;strokeColor=#6c8ebf;" vertex="1" parent="1">
          <mxGeometry x="469.94" y="75" width="40" height="40" as="geometry" />
        </mxCell>
        <mxCell id="eCMuN70A0XHilftcNr7w-2" value="&lt;div&gt;void helper_function(int n)&lt;/div&gt;&lt;div&gt;{&lt;/div&gt;&lt;div&gt;&lt;span style=&quot;background-color: rgb(204, 229, 255);&quot;&gt;&amp;nbsp; &amp;nbsp; pq.pop();&lt;/span&gt;&lt;/div&gt;&lt;div&gt;&lt;span style=&quot;background-color: rgb(204, 229, 255);&quot;&gt;&amp;nbsp; &amp;nbsp; stack_[n] = true;&lt;/span&gt;&lt;/div&gt;&lt;div&gt;&lt;span style=&quot;background-color: rgb(204, 229, 255);&quot;&gt;&amp;nbsp; &amp;nbsp; visited_childs = vector&amp;lt;bool&amp;gt;(number_of_tasks + 1, false);&lt;/span&gt;&lt;/div&gt;&lt;div&gt;&lt;span style=&quot;background-color: rgb(204, 229, 255);&quot;&gt;&amp;nbsp; &amp;nbsp; visited_parents = vector&amp;lt;bool&amp;gt;(number_of_tasks + 1, false);&lt;/span&gt;&lt;/div&gt;&lt;div&gt;&lt;br&gt;&lt;/div&gt;&lt;div&gt;&amp;nbsp; &amp;nbsp; &lt;span style=&quot;background-color: rgb(255, 204, 204);&quot;&gt;if (am_I_a_bottleneck(n))&lt;/span&gt;&lt;/div&gt;&lt;div&gt;&amp;nbsp; &amp;nbsp; {&lt;/div&gt;&lt;div&gt;&lt;span style=&quot;background-color: rgb(255, 204, 204);&quot;&gt;&amp;nbsp; &amp;nbsp; &amp;nbsp; &amp;nbsp; cout &amp;lt;&amp;lt; n &amp;lt;&amp;lt; endl;&lt;/span&gt;&lt;/div&gt;&lt;div&gt;&amp;nbsp; &amp;nbsp; }&lt;/div&gt;&lt;div&gt;&lt;br&gt;&lt;/div&gt;&lt;div&gt;&amp;nbsp; &amp;nbsp; // call childs&lt;/div&gt;&lt;div&gt;&amp;nbsp; &amp;nbsp; &lt;span style=&quot;background-color: rgb(255, 230, 204);&quot;&gt;for (unsigned long int i = 0; i &amp;lt; childs[n].size(); ++i)&lt;/span&gt;&lt;/div&gt;&lt;div&gt;&amp;nbsp; &amp;nbsp; {&lt;/div&gt;&lt;div&gt;&lt;span style=&quot;background-color: rgb(255, 230, 204);&quot;&gt;&amp;nbsp; &amp;nbsp; &amp;nbsp; &amp;nbsp; int visit = childs[n][i];&lt;/span&gt;&lt;/div&gt;&lt;div&gt;&lt;span style=&quot;background-color: rgb(255, 230, 204);&quot;&gt;&amp;nbsp; &amp;nbsp; &amp;nbsp; &amp;nbsp; degree[visit]++;&lt;/span&gt;&lt;/div&gt;&lt;div&gt;&lt;br&gt;&lt;/div&gt;&lt;div&gt;&lt;span style=&quot;background-color: rgb(229, 204, 255);&quot;&gt;&amp;nbsp; &amp;nbsp; &amp;nbsp; &amp;nbsp; if (stack_[visit] == false &amp;amp;&amp;amp; (degree[visit] == (int)parents[visit].size()))&lt;/span&gt;&lt;/div&gt;&lt;div&gt;&amp;nbsp; &amp;nbsp; &amp;nbsp; &amp;nbsp; {&lt;/div&gt;&lt;div&gt;&amp;nbsp; &amp;nbsp; &amp;nbsp; &amp;nbsp; &amp;nbsp; &amp;nbsp; &lt;span style=&quot;background-color: rgb(229, 204, 255);&quot;&gt;pq.push(visit);&lt;/span&gt;&lt;/div&gt;&lt;div&gt;&amp;nbsp; &amp;nbsp; &amp;nbsp; &amp;nbsp; }&lt;/div&gt;&lt;div&gt;&amp;nbsp; &amp;nbsp; }&lt;/div&gt;&lt;div&gt;&lt;br&gt;&lt;/div&gt;&lt;div&gt;&amp;nbsp; &amp;nbsp; &lt;span style=&quot;background-color: rgb(204, 255, 204);&quot;&gt;if (!pq.empty())&lt;/span&gt;&lt;/div&gt;&lt;div&gt;&amp;nbsp; &amp;nbsp; {&lt;/div&gt;&lt;div&gt;&lt;span style=&quot;background-color: rgb(204, 229, 255);&quot;&gt;&amp;nbsp; &amp;nbsp; &amp;nbsp; &amp;nbsp; helper_function(pq.top());&lt;/span&gt;&lt;/div&gt;&lt;div&gt;&amp;nbsp; &amp;nbsp; }&lt;/div&gt;&lt;div&gt;}&lt;/div&gt;" style="text;html=1;strokeColor=none;fillColor=none;align=left;verticalAlign=middle;whiteSpace=wrap;rounded=0;" vertex="1" parent="1">
          <mxGeometry x="-90" y="40" width="400" height="440" as="geometry" />
        </mxCell>
        <mxCell id="eCMuN70A0XHilftcNr7w-9" style="edgeStyle=orthogonalEdgeStyle;rounded=0;orthogonalLoop=1;jettySize=auto;html=1;exitX=0.5;exitY=1;exitDx=0;exitDy=0;entryX=0.5;entryY=0;entryDx=0;entryDy=0;" edge="1" parent="1" source="eCMuN70A0XHilftcNr7w-4" target="eCMuN70A0XHilftcNr7w-5">
          <mxGeometry relative="1" as="geometry" />
        </mxCell>
        <mxCell id="eCMuN70A0XHilftcNr7w-12" style="edgeStyle=orthogonalEdgeStyle;orthogonalLoop=1;jettySize=auto;html=1;exitX=0;exitY=0.5;exitDx=0;exitDy=0;entryX=1;entryY=0;entryDx=0;entryDy=0;rounded=1;" edge="1" parent="1" source="eCMuN70A0XHilftcNr7w-4" target="eCMuN70A0XHilftcNr7w-6">
          <mxGeometry relative="1" as="geometry">
            <Array as="points">
              <mxPoint x="569.94" y="135" />
              <mxPoint x="503.94" y="135" />
            </Array>
          </mxGeometry>
        </mxCell>
        <mxCell id="eCMuN70A0XHilftcNr7w-4" value="2" style="ellipse;whiteSpace=wrap;html=1;aspect=fixed;fillColor=#f8cecc;strokeColor=#b85450;" vertex="1" parent="1">
          <mxGeometry x="569.94" y="75" width="40" height="40" as="geometry" />
        </mxCell>
        <mxCell id="eCMuN70A0XHilftcNr7w-10" style="edgeStyle=orthogonalEdgeStyle;rounded=0;orthogonalLoop=1;jettySize=auto;html=1;exitX=0;exitY=0.5;exitDx=0;exitDy=0;" edge="1" parent="1" source="eCMuN70A0XHilftcNr7w-5" target="eCMuN70A0XHilftcNr7w-6">
          <mxGeometry relative="1" as="geometry" />
        </mxCell>
        <mxCell id="eCMuN70A0XHilftcNr7w-5" value="3" style="ellipse;whiteSpace=wrap;html=1;aspect=fixed;fillColor=#f8cecc;strokeColor=#b85450;" vertex="1" parent="1">
          <mxGeometry x="569.94" y="185" width="40" height="40" as="geometry" />
        </mxCell>
        <mxCell id="eCMuN70A0XHilftcNr7w-14" style="edgeStyle=orthogonalEdgeStyle;rounded=0;orthogonalLoop=1;jettySize=auto;html=1;exitX=0.5;exitY=1;exitDx=0;exitDy=0;entryX=0.5;entryY=0;entryDx=0;entryDy=0;" edge="1" parent="1" source="eCMuN70A0XHilftcNr7w-6" target="eCMuN70A0XHilftcNr7w-13">
          <mxGeometry relative="1" as="geometry" />
        </mxCell>
        <mxCell id="eCMuN70A0XHilftcNr7w-21" style="edgeStyle=orthogonalEdgeStyle;orthogonalLoop=1;jettySize=auto;html=1;exitX=0;exitY=0.5;exitDx=0;exitDy=0;entryX=0.5;entryY=0;entryDx=0;entryDy=0;rounded=1;" edge="1" parent="1" source="eCMuN70A0XHilftcNr7w-6" target="eCMuN70A0XHilftcNr7w-19">
          <mxGeometry relative="1" as="geometry" />
        </mxCell>
        <mxCell id="eCMuN70A0XHilftcNr7w-6" value="4" style="ellipse;whiteSpace=wrap;html=1;aspect=fixed;fillColor=#ffe6cc;strokeColor=#d79b00;" vertex="1" parent="1">
          <mxGeometry x="469.94" y="185" width="40" height="40" as="geometry" />
        </mxCell>
        <mxCell id="eCMuN70A0XHilftcNr7w-16" style="edgeStyle=orthogonalEdgeStyle;rounded=0;orthogonalLoop=1;jettySize=auto;html=1;entryX=0;entryY=0.5;entryDx=0;entryDy=0;" edge="1" parent="1" source="eCMuN70A0XHilftcNr7w-13" target="eCMuN70A0XHilftcNr7w-15">
          <mxGeometry relative="1" as="geometry" />
        </mxCell>
        <mxCell id="eCMuN70A0XHilftcNr7w-13" value="5" style="ellipse;whiteSpace=wrap;html=1;aspect=fixed;fillColor=#ffe6cc;strokeColor=#d79b00;" vertex="1" parent="1">
          <mxGeometry x="469.94" y="295" width="40" height="40" as="geometry" />
        </mxCell>
        <mxCell id="eCMuN70A0XHilftcNr7w-18" style="edgeStyle=orthogonalEdgeStyle;rounded=0;orthogonalLoop=1;jettySize=auto;html=1;exitX=0.5;exitY=1;exitDx=0;exitDy=0;entryX=0.5;entryY=0;entryDx=0;entryDy=0;" edge="1" parent="1" source="eCMuN70A0XHilftcNr7w-15" target="eCMuN70A0XHilftcNr7w-17">
          <mxGeometry relative="1" as="geometry" />
        </mxCell>
        <mxCell id="eCMuN70A0XHilftcNr7w-15" value="6" style="ellipse;whiteSpace=wrap;html=1;aspect=fixed;fillColor=#e1d5e7;strokeColor=#9673a6;" vertex="1" parent="1">
          <mxGeometry x="569.94" y="295" width="40" height="40" as="geometry" />
        </mxCell>
        <mxCell id="eCMuN70A0XHilftcNr7w-17" value="7" style="ellipse;whiteSpace=wrap;html=1;aspect=fixed;fillColor=#e1d5e7;strokeColor=#9673a6;" vertex="1" parent="1">
          <mxGeometry x="569.94" y="405" width="40" height="40" as="geometry" />
        </mxCell>
        <mxCell id="eCMuN70A0XHilftcNr7w-22" style="edgeStyle=orthogonalEdgeStyle;orthogonalLoop=1;jettySize=auto;html=1;exitX=0;exitY=0.5;exitDx=0;exitDy=0;entryX=0;entryY=0.5;entryDx=0;entryDy=0;rounded=1;" edge="1" parent="1" source="eCMuN70A0XHilftcNr7w-19" target="eCMuN70A0XHilftcNr7w-1">
          <mxGeometry relative="1" as="geometry" />
        </mxCell>
        <mxCell id="eCMuN70A0XHilftcNr7w-19" value="8" style="ellipse;whiteSpace=wrap;html=1;aspect=fixed;fillColor=#d5e8d4;strokeColor=#82b366;" vertex="1" parent="1">
          <mxGeometry x="369.94" y="295" width="40" height="40" as="geometry" />
        </mxCell>
        <mxCell id="eCMuN70A0XHilftcNr7w-23" value="&lt;div style=&quot;font-size: 14px;&quot;&gt;&lt;font style=&quot;font-size: 14px;&quot;&gt;&lt;b&gt;V(G)&lt;/b&gt; = E â€“ N + 2 = 10 - 8 + 2 = 4&lt;/font&gt;&lt;/div&gt;&lt;div style=&quot;font-size: 14px;&quot;&gt;&lt;font style=&quot;font-size: 14px;&quot;&gt;&lt;b&gt;V(G)&lt;/b&gt; = P + 1 = 3 + 1 = 4&lt;/font&gt;&lt;/div&gt;" style="text;html=1;align=left;verticalAlign=middle;resizable=0;points=[];autosize=1;strokeColor=none;fillColor=none;" vertex="1" parent="1">
          <mxGeometry x="-90" y="490" width="230" height="50" as="geometry" />
        </mxCell>
      </root>
    </mxGraphModel>
  </diagram>
</mxfile>
